<svg xmlns="http://www.w3.org/2000/svg" width="512" height="512" fill="none" viewBox="0 0 512 512" id="pomodoro">
  <path fill="#fff" d="M195.58 258.891C207.99 255.361 221.22 257.611 233.92 259.891 233.55 262.381 233.38 264.901 233.43 267.411 224.75 267.941 216.08 268.461 207.4 268.991 206.87 273.401 205.86 277.921 206.15 282.351 213.48 282.941 220.9 282.401 228.07 280.771L229.86 280.561C231.15 294.221 231.07 308.011 229.63 321.661 229.6 321.911 229.57 322.181 229.41 322.371 229.22 322.601 228.89 322.671 228.6 322.721 217.54 324.641 209.78 325.381 198.56 324.911 197.89 319.741 197.75 318.011 198.14 312.801L199.86 310.971C204.1 311.791 204.89 312.321 209.21 312.551 211.62 312.681 214.1 312.711 216.37 311.881 216.94 311.671 217.53 311.381 217.85 310.861 218.12 310.431 218.16 309.901 218.2 309.401 218.55 304.921 218.91 296.931 219.26 292.451 211.96 292.221 204.65 292.521 197.39 293.361 195.97 282.601 195.1 271.781 194.78 260.931L195.58 258.891zM150.53 323.2C162.94 326.73 176.17 324.48 188.87 322.2 188.5 319.71 188.33 317.19 188.38 314.68 179.7 314.15 171.03 313.63 162.35 313.1 161.82 308.69 160.81 304.17 161.1 299.74 168.43 299.15 175.85 299.69 183.02 301.32L184.81 301.53C186.1 287.87 186.02 274.08 184.58 260.43 184.55 260.18 184.52 259.91 184.36 259.72 184.17 259.49 183.84 259.42 183.55 259.37 172.49 257.45 161.22 256.71 150 257.18 149.33 262.35 149.19 264.08 149.58 269.29L151.3 271.12C155.54 270.3 159.84 269.77 164.16 269.54 166.57 269.41 169.05 269.38 171.32 270.21 171.89 270.42 172.48 270.71 172.8 271.23 173.07 271.66 173.11 272.19 173.15 272.69 173.5 277.17 173.86 285.16 174.21 289.64 166.91 289.87 159.6 289.57 152.34 288.73 150.92 299.49 150.05 310.31 149.73 321.16L150.53 323.2zM239.53 270.38C244.68 270.15 249.84 270.13 255 270.3 255.39 273.85 255.4 277.43 255.02 280.98L254.72 283.07C254.68 283.01 254.83 283.01 254.83 283.08 254.82 283.15 254.74 283.18 254.67 283.19 253.42 283.43 252.14 283.49 250.86 283.53 247.31 283.65 243.76 283.67 240.21 283.59 239.93 283.58 239.6 283.56 239.42 283.34 239.28 283.16 239.27 282.92 239.27 282.69 239.25 278.95 239.23 275.21 239.21 271.48L239.53 270.38zM255.02 309.58C255.39 306.03 255.39 302.44 255 298.9 249.85 298.73 244.68 298.76 239.53 298.98L239.21 300.07C239.23 303.81 239.25 307.55 239.27 311.28 239.27 311.51 239.28 311.75 239.42 311.93 239.6 312.15 239.92 312.17 240.21 312.18 243.76 312.27 247.31 312.25 250.86 312.12 252.13 312.08 253.41 312.02 254.67 311.78 254.74 311.77 254.82 311.74 254.83 311.67 254.84 311.6 254.69 311.6 254.72 311.66L255.02 309.58zM243.97 373.879C245.44 362.359 245.55 350.659 244.29 339.109 239.45 339.119 234.61 338.979 229.78 338.689L228.23 339.209C227.71 351.279 227.65 363.369 228.05 375.439 234.19 375.999 237.85 376.499 244.01 376.629L243.97 373.879zM270.91 373.879C272.38 362.359 272.49 350.659 271.23 339.109 266.39 339.119 261.55 338.979 256.72 338.689L255.17 339.209C254.65 351.279 254.59 363.369 254.99 375.439 261.13 375.999 264.79 376.499 270.95 376.629L270.91 373.879z"></path>
  <path fill="#fff" d="M365.86 395.461C332.57 434.091 280.06 454.141 229.92 448.601C181.72 443.281 136.18 414.381 111.72 371.701C87.2695 329.011 85.1995 273.411 107.96 229.761C122.93 201.051 147.67 178.191 176.1 163.461C188.5 157.041 211.91 144.961 241.86 144.961C246.74 164.471 240.11 171.301 240.11 171.301C222.15 174.041 204.59 179.341 188.42 187.721C164.88 199.911 144.4 218.831 132.01 242.601C113.17 278.741 114.88 324.761 135.13 360.101C155.37 395.431 193.07 419.351 232.97 423.761C274.48 428.341 317.94 411.751 345.5 379.771C373.05 347.791 383.55 301.101 371.4 260.381C366.22 242.981 356.9 226.971 344.73 213.681H342.3C350.19 201.601 350.2 199.821 362.42 192.151C378.34 208.701 390.53 229.031 397.15 251.241C411.83 300.431 399.14 356.831 365.86 395.461Z"></path>
  <path fill="#000" d="M359.57 192.441C378.68 211.911 392.24 236.461 397.87 263.201C403.13 288.231 401.54 314.551 394.12 338.981C386.7 363.431 373.35 385.971 354.94 403.741C336.72 421.331 314.05 434.121 289.74 441.111C265.63 448.051 239.93 449.251 215.36 443.981C191.22 438.791 168.32 427.771 149.19 412.161C129.59 396.171 113.91 375.451 104.69 351.831C95.0501 327.121 91.9501 299.771 96.0701 273.541C100.16 247.501 111.43 223.251 128.7 203.341C146.41 182.911 169.35 167.411 194.48 157.591C201.4 154.891 208.47 152.601 215.64 150.681C218.43 149.931 217.25 145.591 214.44 146.341C186.58 153.811 160.35 167.101 138.89 186.511C118.82 204.661 103.51 227.841 95.8601 253.871C88.2001 279.951 87.9201 308.121 94.4601 334.471C100.87 360.281 114.1 383.971 132.61 403.051C150.37 421.361 172.59 435.281 196.74 443.481C221.19 451.791 247.37 453.771 272.83 449.531C298.45 445.271 323.14 434.761 343.86 419.081C364.88 403.161 381.46 382.071 391.95 357.871C402.39 333.761 407.09 307.121 404.95 280.901C402.7 253.401 392.77 227.011 376.21 204.921C372.08 199.401 367.59 194.171 362.76 189.251C360.72 187.191 357.54 190.371 359.57 192.441Z"></path>
  <path fill="#000" d="M343.14 215.27C359.69 233.42 370.52 256.41 373.33 280.85C375.99 303.92 372.15 327.74 362.51 348.86C352.89 369.95 337.59 387.95 318.21 400.7C299.04 413.32 276.51 420.83 253.58 422.06C231.06 423.27 208.53 418.24 188.55 407.82C168.66 397.45 151.39 382.01 139.47 362.96C126.75 342.63 120.53 318.55 121.14 294.62C121.75 270.56 129.51 247.24 143.88 227.9C158.25 208.56 178.4 193.73 200.56 184.5C213.09 179.28 226.3 175.73 239.7 173.62C241.09 173.4 241.62 173.07 242.37 172.04C242.79 171.46 243.15 170.85 243.46 170.21C244.9 167.26 245.55 164.03 245.8 160.77C246.22 155.27 245.34 149.69 244.03 144.36C243.34 141.55 239 142.74 239.69 145.56C241.22 151.78 242.21 158.64 240.64 164.85C240.42 165.74 240.13 166.6 239.8 167.45C239.63 167.89 239.97 167.08 239.76 167.53C239.69 167.67 239.63 167.81 239.57 167.95C239.43 168.23 239.29 168.5 239.14 168.77C238.94 169.12 238.69 169.44 238.48 169.78C238.61 169.56 238.84 169.38 238.51 169.71C238.84 169.52 239.17 169.32 239.5 169.13C214.82 172.92 190.7 181.61 170.27 196.15C151.8 209.3 136.26 226.94 127.02 247.76C117.62 268.96 114.7 292.63 117.81 315.56C120.87 338.12 129.91 359.49 144.13 377.27C157.55 394.04 175.3 407.37 195.01 415.88C215.04 424.53 236.96 428.23 258.72 426.19C280.58 424.14 301.92 416.76 320.29 404.71C338.94 392.48 354.18 375.58 364.22 355.65C374.2 335.82 379.26 313.48 378.57 291.28C377.84 267.89 370.51 245.06 357.2 225.78C353.88 220.97 350.23 216.4 346.3 212.08C344.37 209.94 341.19 213.13 343.14 215.27Z"></path>
  <path fill="#000" d="M344.25 214.82C345.85 212.37 347.4 209.89 349 207.44 349.56 206.58 350.14 205.73 350.74 204.89 350.9 204.67 351.06 204.45 351.22 204.23 351.3 204.12 351.38 204.02 351.46 203.91 351.31 204.1 351.31 204.1 351.47 203.9 351.75 203.55 352.04 203.2 352.33 202.85 355.56 199.11 359.35 196.74 363.56 194.09 366.01 192.55 363.75 188.66 361.29 190.2 356.97 192.92 352.52 195.77 349.15 199.66 345.76 203.59 343.19 208.2 340.36 212.53 338.77 214.98 342.67 217.24 344.25 214.82zM192.52 260.929C192.85 271.779 193.73 282.599 195.13 293.359 195.27 294.459 196.05 295.759 197.38 295.609 204.64 294.789 211.95 294.479 219.25 294.699 218.5 293.949 217.75 293.199 217 292.449 216.57 297.949 216.38 303.469 215.97 308.969 215.93 309.499 216.05 309.489 215.76 309.709 215.17 310.149 213.99 310.209 213.28 310.289 211.56 310.469 209.8 310.359 208.08 310.229 205.49 310.029 202.99 309.299 200.44 308.799 197.61 308.249 196.4 312.579 199.24 313.139 202.41 313.759 205.48 314.569 208.72 314.769 212.1 314.989 217.9 315.329 219.85 311.829 220.63 310.429 220.5 308.469 220.61 306.899 220.71 305.299 220.81 303.689 220.9 302.089 221.08 298.869 221.25 295.659 221.5 292.449 221.6 291.209 220.39 290.229 219.25 290.199 211.95 289.979 204.64 290.279 197.38 291.109 198.13 291.859 198.88 292.609 199.63 293.359 198.22 282.599 197.35 271.779 197.02 260.929 196.93 258.039 192.43 258.029 192.52 260.929z"></path>
  <path fill="#000" d="M195.88 312.791C195.58 316.901 195.78 320.821 196.3 324.901C196.46 326.151 197.2 327.101 198.55 327.151C207.91 327.531 217.13 326.861 226.37 325.361C227.44 325.191 228.6 325.101 229.63 324.771C231.11 324.291 231.7 323.101 231.87 321.651C232.18 319.061 232.37 316.441 232.54 313.841C232.89 308.621 233.04 303.401 233 298.171C232.95 292.291 232.64 286.411 232.1 280.561C231.99 279.351 231.15 278.311 229.85 278.311C228.72 278.311 227.49 279.341 227.6 280.561C228.23 287.391 228.54 294.251 228.51 301.111C228.49 304.461 228.39 307.811 228.21 311.151C228.12 312.861 228 314.571 227.87 316.281C227.81 317.091 227.74 317.911 227.66 318.721C227.62 319.211 227.57 319.701 227.52 320.181C227.5 320.341 227.49 320.511 227.47 320.671C227.33 321.211 227.37 321.311 227.58 320.951C227.91 320.761 228.24 320.561 228.57 320.371C227.45 320.791 226.12 320.861 224.94 321.051C223.61 321.261 222.28 321.471 220.95 321.651C218.58 321.981 216.21 322.241 213.82 322.431C208.73 322.831 203.63 322.851 198.54 322.641C199.29 323.391 200.04 324.141 200.79 324.891C200.27 320.811 200.07 316.891 200.37 312.781C200.46 311.571 199.27 310.531 198.12 310.531C196.84 310.541 195.97 311.581 195.88 312.791Z"></path>
  <path fill="#000" d="M196.17 261.061C208.36 257.661 221.12 259.881 233.32 262.061C232.8 261.141 232.27 260.211 231.75 259.291C231.36 261.991 231.14 264.681 231.18 267.411C231.93 266.661 232.68 265.911 233.43 265.161C224.75 265.691 216.08 266.211 207.4 266.741C206.07 266.821 205.31 267.721 205.15 268.991C204.6 273.431 203.65 277.851 203.9 282.351C203.97 283.641 204.88 284.501 206.15 284.601C213.69 285.181 221.28 284.601 228.66 282.941C231.48 282.311 230.29 277.971 227.46 278.601C220.46 280.171 213.3 280.641 206.14 280.101C206.89 280.851 207.64 281.601 208.39 282.351C208.14 277.851 209.09 273.431 209.64 268.991C208.89 269.741 208.14 270.491 207.39 271.241C216.07 270.711 224.74 270.191 233.42 269.661C234.62 269.591 235.69 268.691 235.67 267.411C235.64 265.101 235.74 262.781 236.08 260.491C236.24 259.381 235.82 257.961 234.51 257.721C221.5 255.391 207.97 253.101 194.97 256.721C192.19 257.491 193.38 261.841 196.17 261.061Z"></path>
  <path fill="#fff" d="M299.52 264.21L299 259.71C286.29 257.44 276.73 255.18 264.33 258.71L263.52 260.75C263.84 271.59 263.52 297.89 266.14 320.61L267.31 324.72C278.53 325.19 286.29 324.46 297.35 322.53C297.65 322.48 297.97 322.41 298.17 322.18C298.33 321.99 298.36 321.71 298.39 321.47C299.82 307.82 300.8 277.87 299.52 264.21ZM288 273.21C287.65 277.69 287.3 304.73 286.94 309.22L285.11 311.7C282.84 312.53 280.36 312.49 277.95 312.36L275.76 312.44C275.47 308.01 274.9 274.75 276.16 268.81C280.88 267.39 284.31 267.77 288 268.78V273.21Z"></path>
  <path fill="#000" d="M284.64 309.519C283.86 309.799 283.05 309.989 282.23 310.099C282.43 310.069 282.629 310.049 282.829 310.019C281.259 310.229 279.67 310.189 278.09 310.099C276.91 310.039 275.79 311.179 275.84 312.349C275.9 313.619 276.83 314.529 278.09 314.599C280.68 314.739 283.38 314.739 285.85 313.849C286.41 313.649 286.89 313.339 287.19 312.819C287.47 312.339 287.59 311.629 287.42 311.089C287.05 309.999 285.82 309.089 284.64 309.519Z"></path>
  <path fill="#000" d="M285.88 273.211C285.55 277.471 285.57 281.781 285.47 286.051 285.33 291.841 285.22 297.641 285.06 303.431 285 305.361 284.97 307.291 284.83 309.211 284.74 310.421 285.93 311.461 287.08 311.461 288.37 311.461 289.24 310.431 289.33 309.211 289.66 304.951 289.64 300.641 289.74 296.371 289.87 290.581 289.99 284.781 290.15 278.991 290.21 277.061 290.24 275.131 290.38 273.211 290.47 272.001 289.28 270.961 288.13 270.961 286.83 270.961 285.97 271.991 285.88 273.211zM261.4 260.74C261.84 275.59 261.73 290.44 262.68 305.28 263.01 310.4 263.44 315.51 264.02 320.6 264.16 321.81 264.96 322.85 266.27 322.85 267.38 322.85 268.66 321.82 268.52 320.6 266.6 303.79 266.28 286.85 266.06 269.94 266.02 266.87 265.99 263.8 265.9 260.74 265.81 257.85 261.31 257.84 261.4 260.74z"></path>
  <path fill="#000" d="M267.44 326.959C274.71 327.259 281.95 327.009 289.16 326.059C291.12 325.799 293.08 325.519 295.03 325.199C296.72 324.929 299.23 324.949 300.23 323.299C300.9 322.209 300.84 320.669 300.96 319.409C301.07 318.249 301.16 317.079 301.25 315.919C302.13 304.379 302.5 292.779 302.49 281.209C302.48 275.539 302.42 269.839 301.89 264.189C301.78 262.979 300.94 261.939 299.64 261.939C298.51 261.939 297.28 262.969 297.39 264.189C298.05 271.289 298.03 278.469 297.97 285.599C297.89 293.829 297.62 302.069 297.13 310.289C297.01 312.309 296.88 314.319 296.72 316.339C296.65 317.239 296.58 318.129 296.5 319.029C296.47 319.399 296.43 319.779 296.4 320.149C296.38 320.349 296.35 320.549 296.34 320.749C296.33 320.829 296.32 320.909 296.32 320.979C296.26 321.369 296.31 321.289 296.48 320.739C296.81 320.549 297.14 320.349 297.47 320.159C296.35 320.579 295.02 320.649 293.84 320.839C292.51 321.049 291.18 321.259 289.85 321.439C287.48 321.769 285.11 322.029 282.72 322.219C277.63 322.619 272.53 322.639 267.44 322.429C264.54 322.339 264.54 326.839 267.44 326.959Z"></path>
  <path fill="#000" d="M288.73 266.601C284.34 265.421 280.06 265.351 275.68 266.631 274.96 266.841 274.26 267.441 274.11 268.201 273.67 270.341 273.6 272.581 273.5 274.761 273.35 278.091 273.3 281.421 273.27 284.741 273.21 291.801 273.27 298.851 273.43 305.911 273.48 308.081 273.5 310.261 273.64 312.421 273.82 315.301 278.32 315.321 278.14 312.421 277.82 307.431 277.85 302.411 277.8 297.411 277.73 290.381 277.7 283.341 277.94 276.311 277.99 274.821 278.06 273.331 278.17 271.841 278.21 271.271 278.27 270.711 278.33 270.141 278.39 269.531 278.24 270.561 278.35 269.991 278.39 269.791 278.42 269.581 278.46 269.381 277.94 269.901 277.41 270.431 276.89 270.951 280.52 269.891 283.91 269.941 287.54 270.921 290.33 271.691 291.53 267.351 288.73 266.601zM265.05 260.87C270.5 259.35 276.04 258.86 281.68 259.27 287.35 259.69 292.94 260.86 298.53 261.87 299.72 262.08 300.96 261.55 301.3 260.3 301.6 259.21 300.93 257.75 299.73 257.53 293.75 256.46 287.76 255.22 281.69 254.77 275.68 254.33 269.67 254.9 263.86 256.53 261.07 257.31 262.25 261.65 265.05 260.87z"></path>
  <path fill="#fff" d="M346.55 264.21L346.03 259.71C333.32 257.44 323.76 255.18 311.36 258.71L310.55 260.75C310.87 271.59 310.55 297.89 313.17 320.61L314.34 324.72C325.56 325.19 333.32 324.46 344.38 322.53C344.68 322.48 345 322.41 345.2 322.18C345.36 321.99 345.39 321.71 345.42 321.47C346.85 307.82 347.84 277.87 346.55 264.21ZM335.04 273.21C334.69 277.69 334.34 304.73 333.98 309.22L332.15 311.7C329.88 312.53 327.4 312.49 324.99 312.36L322.8 312.44C322.51 308.01 321.94 274.75 323.2 268.81C327.92 267.39 331.35 267.77 335.04 268.78V273.21Z"></path>
  <path fill="#000" d="M331.67 309.519C330.89 309.799 330.08 309.989 329.26 310.099C329.46 310.069 329.66 310.049 329.86 310.019C328.29 310.229 326.7 310.189 325.12 310.099C323.94 310.039 322.82 311.179 322.87 312.349C322.93 313.619 323.86 314.529 325.12 314.599C327.71 314.739 330.41 314.739 332.88 313.849C333.44 313.649 333.92 313.339 334.22 312.819C334.5 312.339 334.62 311.629 334.45 311.089C334.09 309.999 332.86 309.089 331.67 309.519Z"></path>
  <path fill="#000" d="M332.91 273.211C332.58 277.471 332.6 281.781 332.5 286.051 332.36 291.841 332.25 297.641 332.09 303.431 332.03 305.361 332 307.291 331.86 309.211 331.77 310.421 332.96 311.461 334.11 311.461 335.4 311.461 336.27 310.431 336.36 309.211 336.69 304.951 336.67 300.641 336.77 296.371 336.91 290.581 337.02 284.781 337.18 278.991 337.24 277.061 337.27 275.131 337.41 273.211 337.5 272.001 336.31 270.961 335.16 270.961 333.87 270.961 333.01 271.991 332.91 273.211zM308.43 260.74C308.87 275.59 308.76 290.44 309.71 305.28 310.04 310.4 310.47 315.51 311.05 320.6 311.19 321.81 311.99 322.85 313.3 322.85 314.41 322.85 315.69 321.82 315.55 320.6 313.63 303.79 313.31 286.85 313.09 269.94 313.05 266.87 313.02 263.8 312.93 260.74 312.85 257.85 308.35 257.84 308.43 260.74z"></path>
  <path fill="#000" d="M314.47 326.959C321.74 327.259 328.98 327.009 336.19 326.059C338.15 325.799 340.11 325.519 342.06 325.199C343.75 324.929 346.26 324.949 347.26 323.299C347.93 322.209 347.87 320.669 347.99 319.409C348.1 318.249 348.19 317.079 348.28 315.919C349.16 304.379 349.53 292.779 349.52 281.209C349.51 275.539 349.45 269.839 348.92 264.189C348.81 262.979 347.97 261.939 346.67 261.939C345.54 261.939 344.31 262.969 344.42 264.189C345.08 271.289 345.06 278.469 345 285.599C344.92 293.829 344.65 302.069 344.16 310.289C344.04 312.309 343.91 314.319 343.75 316.339C343.68 317.239 343.61 318.129 343.53 319.029C343.5 319.399 343.46 319.779 343.43 320.149C343.41 320.349 343.38 320.549 343.37 320.749C343.36 320.829 343.35 320.909 343.35 320.979C343.29 321.369 343.34 321.289 343.51 320.739C343.84 320.549 344.17 320.349 344.5 320.159C343.38 320.579 342.05 320.649 340.87 320.839C339.54 321.049 338.21 321.259 336.88 321.439C334.51 321.769 332.14 322.029 329.75 322.219C324.66 322.619 319.56 322.639 314.47 322.429C311.57 322.339 311.58 326.839 314.47 326.959Z"></path>
  <path fill="#000" d="M335.76 266.601C331.37 265.421 327.09 265.351 322.71 266.631 321.99 266.841 321.29 267.441 321.14 268.201 320.7 270.341 320.63 272.581 320.53 274.761 320.38 278.091 320.33 281.421 320.3 284.741 320.24 291.801 320.3 298.851 320.46 305.911 320.51 308.081 320.53 310.261 320.67 312.421 320.85 315.301 325.35 315.321 325.17 312.421 324.85 307.431 324.88 302.411 324.83 297.411 324.76 290.381 324.73 283.341 324.97 276.311 325.02 274.821 325.09 273.331 325.2 271.841 325.24 271.271 325.3 270.711 325.36 270.141 325.42 269.531 325.27 270.561 325.38 269.991 325.42 269.791 325.45 269.581 325.49 269.381 324.97 269.901 324.44 270.431 323.92 270.951 327.55 269.891 330.94 269.941 334.57 270.921 337.37 271.691 338.56 267.351 335.76 266.601zM312.09 260.87C317.54 259.35 323.08 258.86 328.72 259.27 334.39 259.69 339.98 260.86 345.57 261.87 346.76 262.08 348 261.55 348.34 260.3 348.64 259.21 347.97 257.75 346.77 257.53 340.79 256.46 334.8 255.22 328.73 254.77 322.72 254.33 316.71 254.9 310.9 256.53 308.11 257.31 309.29 261.65 312.09 260.87zM151.98 321.161C152.31 310.311 153.19 299.491 154.59 288.731 153.84 289.481 153.09 290.231 152.34 290.981 159.6 291.801 166.91 292.111 174.21 291.891 175.35 291.861 176.56 290.881 176.46 289.641 176.21 286.431 176.05 283.211 175.86 280.001 175.77 278.401 175.68 276.791 175.57 275.191 175.47 273.621 175.59 271.661 174.81 270.261 172.85 266.751 167.06 267.121 163.67 267.321 159.31 267.581 154.98 268.141 150.69 268.951 149.5 269.181 148.82 270.611 149.12 271.721 149.46 272.971 150.69 273.521 151.89 273.291 155.47 272.611 159.08 272.131 162.71 271.881 164.54 271.751 166.4 271.611 168.23 271.801 168.98 271.881 169.79 272.021 170.49 272.301 171.07 272.531 170.87 272.481 170.92 273.111 171.33 278.611 171.52 284.131 171.95 289.631 172.7 288.881 173.45 288.131 174.2 287.381 166.9 287.601 159.59 287.301 152.33 286.471 151.01 286.321 150.22 287.631 150.08 288.721 148.67 299.481 147.8 310.301 147.47 321.151 147.39 324.061 151.89 324.061 151.98 321.161z"></path>
  <path fill="#000" d="M151.83 269.301C151.53 265.191 151.73 261.271 152.25 257.191C151.5 257.941 150.75 258.691 150 259.441C155.69 259.211 161.39 259.271 167.08 259.651C169.84 259.831 172.6 260.091 175.34 260.421C176.76 260.591 178.17 260.781 179.58 261.001C180.87 261.191 182.32 261.261 183.54 261.721C183.21 261.531 182.88 261.331 182.55 261.141C182.39 260.851 182.34 260.861 182.42 261.171C182.44 261.411 182.47 261.661 182.49 261.901C182.53 262.311 182.57 262.711 182.61 263.121C182.68 263.931 182.75 264.751 182.82 265.561C182.96 267.271 183.07 268.981 183.17 270.691C183.36 274.121 183.46 277.541 183.48 280.981C183.52 287.841 183.21 294.701 182.57 301.531C182.46 302.741 183.68 303.781 184.82 303.781C186.13 303.781 186.96 302.751 187.07 301.531C188.04 291.121 188.24 280.641 187.64 270.201C187.49 267.591 187.29 264.981 187.04 262.381C186.93 261.211 186.98 259.801 186.4 258.751C185.71 257.511 184.49 257.251 183.2 257.031C178.03 256.161 172.81 255.541 167.58 255.171C161.73 254.761 155.87 254.691 150.02 254.931C148.69 254.981 147.93 255.931 147.77 257.181C147.25 261.261 147.05 265.181 147.35 269.291C147.44 270.501 148.32 271.541 149.6 271.541C150.73 271.551 151.92 270.521 151.83 269.301Z"></path>
  <path fill="#000" d="M149.94 325.37C162.94 328.99 176.47 326.7 189.48 324.37 190.78 324.14 191.21 322.71 191.05 321.6 190.72 319.31 190.61 316.99 190.64 314.68 190.66 313.41 189.59 312.5 188.39 312.43 179.71 311.9 171.04 311.38 162.36 310.85 163.11 311.6 163.86 312.35 164.61 313.1 164.06 308.66 163.11 304.24 163.36 299.74 162.61 300.49 161.86 301.24 161.11 301.99 168.26 301.44 175.43 301.92 182.43 303.49 185.25 304.12 186.46 299.78 183.63 299.15 176.25 297.5 168.66 296.92 161.12 297.49 159.85 297.59 158.94 298.44 158.87 299.74 158.62 304.24 159.57 308.65 160.12 313.1 160.28 314.37 161.03 315.27 162.37 315.35 171.05 315.88 179.72 316.4 188.4 316.93 187.65 316.18 186.9 315.43 186.15 314.68 186.11 317.41 186.33 320.1 186.72 322.8 187.24 321.88 187.77 320.95 188.29 320.03 176.09 322.21 163.34 324.43 151.14 321.03 148.34 320.26 147.14 324.6 149.94 325.37zM236.96 271.471C236.97 274.171 236.99 276.871 237 279.571 237 280.191 237.01 280.821 237.01 281.441 237.01 282.181 236.93 283.021 237.15 283.741 237.68 285.531 239.35 285.821 240.97 285.861 243.56 285.911 246.14 285.911 248.73 285.851 250.03 285.821 251.33 285.801 252.62 285.701 253.31 285.651 254 285.571 254.68 285.461 255.59 285.321 256.19 284.991 256.76 284.221 257.31 283.491 257.11 282.081 256.41 281.491 256.39 281.471 256.37 281.451 256.35 281.441 255.44 280.671 254.06 280.501 253.17 281.441 253.16 281.451 253.14 281.471 253.13 281.481 252.29 282.361 252.25 283.791 253.13 284.661 253.97 285.501 255.47 285.541 256.31 284.661 256.32 284.651 256.34 284.631 256.35 284.621 255.29 284.621 254.23 284.621 253.17 284.621 253.19 284.641 253.21 284.661 253.23 284.671 253.11 283.761 253 282.851 252.88 281.941 252.86 281.971 252.84 281.991 252.82 282.021 253.27 281.681 253.72 281.331 254.16 280.991 253.21 281.311 252.02 281.241 251 281.281 249.73 281.331 248.47 281.361 247.2 281.381 245.98 281.401 244.76 281.401 243.55 281.401 242.94 281.401 242.33 281.391 241.72 281.381 241.36 281.371 241.01 281.371 240.65 281.361 240.5 281.361 240.35 281.351 240.19 281.351 240.42 281.411 240.41 281.391 240.16 281.311 240.49 281.501 240.82 281.701 241.15 281.891 241.43 282.121 241.5 283.231 241.49 282.231 241.49 282.021 241.49 281.811 241.49 281.611 241.49 281.141 241.48 280.681 241.48 280.211 241.47 279.221 241.47 278.241 241.46 277.251 241.45 275.331 241.44 273.411 241.43 271.491 241.42 270.271 240.4 269.241 239.18 269.241 238 269.221 236.95 270.251 236.96 271.471z"></path>
  <path fill="#000" d="M239.53 272.631C244.68 272.411 249.84 272.381 255 272.551 254.25 271.801 253.5 271.051 252.75 270.301 253.13 273.851 253.14 277.431 252.77 280.981 252.65 282.191 253.89 283.231 255.02 283.231 256.34 283.231 257.15 282.191 257.27 280.981 257.63 277.421 257.63 273.851 257.25 270.301 257.12 269.061 256.33 268.091 255 268.051 249.84 267.881 244.69 267.911 239.53 268.131 238.32 268.181 237.28 269.131 237.28 270.381 237.28 271.561 238.31 272.681 239.53 272.631zM236.96 300.07C236.97 302.77 236.99 305.47 237 308.17 237 308.79 237.01 309.42 237.01 310.04 237.01 310.78 236.93 311.62 237.15 312.34 237.68 314.13 239.35 314.42 240.97 314.46 243.56 314.51 246.14 314.51 248.73 314.45 250.03 314.42 251.33 314.4 252.62 314.3 253.31 314.25 254 314.17 254.68 314.06 255.59 313.92 256.19 313.59 256.76 312.82 257.31 312.09 257.11 310.68 256.41 310.09 256.39 310.07 256.37 310.05 256.35 310.04 255.44 309.27 254.06 309.1 253.17 310.04 253.16 310.05 253.14 310.07 253.13 310.08 252.29 310.96 252.25 312.39 253.13 313.26 253.97 314.1 255.47 314.14 256.31 313.26 256.32 313.25 256.34 313.23 256.35 313.22 255.29 313.22 254.23 313.22 253.17 313.22 253.19 313.24 253.21 313.26 253.23 313.27 253.11 312.36 253 311.45 252.88 310.54 252.86 310.57 252.84 310.59 252.82 310.62 253.27 310.28 253.72 309.93 254.16 309.59 253.21 309.91 252.02 309.84 251 309.88 249.73 309.93 248.47 309.96 247.2 309.98 245.98 310 244.76 310 243.55 310 242.94 310 242.33 309.99 241.72 309.98 241.36 309.97 241.01 309.97 240.65 309.96 240.5 309.96 240.35 309.95 240.19 309.95 240.42 310.01 240.41 309.99 240.16 309.91 240.49 310.1 240.82 310.3 241.15 310.49 241.43 310.72 241.5 311.83 241.49 310.83 241.49 310.62 241.49 310.41 241.49 310.21 241.49 309.74 241.48 309.28 241.48 308.81 241.47 307.82 241.47 306.84 241.46 305.85 241.45 303.93 241.44 302.01 241.43 300.09 241.42 298.87 240.4 297.84 239.18 297.84 238 297.82 236.95 298.85 236.96 300.07z"></path>
  <path fill="#000" d="M239.53 301.23C244.68 301.01 249.84 300.98 255 301.15 254.25 300.4 253.5 299.65 252.75 298.9 253.13 302.45 253.14 306.03 252.77 309.58 252.65 310.79 253.89 311.83 255.02 311.83 256.34 311.83 257.15 310.79 257.27 309.58 257.63 306.02 257.63 302.45 257.25 298.9 257.12 297.66 256.33 296.69 255 296.65 249.84 296.48 244.69 296.51 239.53 296.73 238.32 296.78 237.28 297.73 237.28 298.98 237.28 300.16 238.31 301.28 239.53 301.23zM225.98 339.201C225.47 351.271 225.41 363.361 225.8 375.431 225.84 376.731 226.8 377.571 228.05 377.681 233.37 378.171 238.66 378.751 244.01 378.871 246.91 378.941 246.91 374.441 244.01 374.371 238.67 374.251 233.37 373.671 228.05 373.181 228.8 373.931 229.55 374.681 230.3 375.431 229.91 363.351 229.97 351.271 230.48 339.201 230.61 336.301 226.11 336.311 225.98 339.201z"></path>
  <path fill="#000" d="M229.78 340.93C234.61 341.22 239.45 341.36 244.29 341.35 243.54 340.6 242.79 339.85 242.04 339.1 243.28 350.66 243.17 362.33 241.72 373.87 241.57 375.08 242.86 376.12 243.97 376.12 245.31 376.12 246.07 375.08 246.22 373.87 247.68 362.33 247.79 350.66 246.54 339.1 246.41 337.89 245.61 336.85 244.29 336.85 239.45 336.86 234.61 336.72 229.78 336.43 226.89 336.26 226.9 340.76 229.78 340.93zM252.92 339.201C252.41 351.271 252.35 363.361 252.74 375.431 252.78 376.731 253.74 377.571 254.99 377.681 260.31 378.171 265.6 378.751 270.95 378.871 273.85 378.941 273.85 374.441 270.95 374.371 265.61 374.251 260.31 373.671 254.99 373.181 255.74 373.931 256.49 374.681 257.24 375.431 256.85 363.351 256.91 351.271 257.42 339.201 257.54 336.301 253.04 336.311 252.92 339.201z"></path>
  <path fill="#000" d="M256.72 340.93C261.55 341.22 266.39 341.36 271.23 341.35C270.48 340.6 269.73 339.85 268.98 339.1C270.22 350.66 270.11 362.33 268.66 373.87C268.51 375.08 269.8 376.12 270.91 376.12C272.25 376.12 273.01 375.08 273.16 373.87C274.62 362.33 274.73 350.66 273.48 339.1C273.35 337.89 272.55 336.85 271.23 336.85C266.39 336.86 261.55 336.72 256.72 336.43C253.83 336.26 253.84 340.76 256.72 340.93Z"></path>
  <path fill="#fff" d="M419.93 106.07C409.15 103.18 396.01 108.92 388.97 117.59C385.22 122.22 382.99 127.86 380.7 133.35C378.4 138.85 375.92 144.42 371.8 148.72C367.68 153.02 361.56 155.87 355.75 154.59L344.91 155.24C367.17 163.73 383.95 185.14 386.86 208.78C382.39 195.61 367.55 185.12 354.97 179.18C342.4 173.23 328.76 168.52 318.83 158.78L313.59 156.57C298.33 177.81 272.16 190.74 246.02 189.97C262.94 184.75 278.07 171.77 286.01 155.78C263.37 134.92 232.16 123.67 201.43 125.31C215.21 118.24 231.29 115.76 246.57 118.32C258.03 120.24 269 125.01 278.3 131.99L278.84 127.96C261.19 121.43 248.47 103.65 246.7 84.9096C251.27 93.4996 260.94 98.0696 270.34 100.59C279.74 103.1 289.65 104.2 298.36 108.53C307.08 112.86 314.61 121.68 313.53 131.35L316.39 141.14C322.97 128.81 325.31 114.27 322.94 100.49C320.56 86.7196 313.49 73.7996 303.16 64.3796C313.99 61.7396 324.3 61.7496 334.9 65.1696C348.8 89.9096 347.14 122.57 330.81 145.78L332.87 147.72C344.17 147.49 353.43 138.79 360.23 129.75C367.02 120.72 372.94 110.48 382.56 104.56C393.82 97.6196 409.27 98.2396 419.93 106.07Z"></path>
  <path fill="#000" d="M332.76 146.919C341.42 134.539 346.04 119.569 346.51 104.509C346.75 96.9193 345.91 89.2593 344.01 81.9093C343.06 78.2293 341.81 74.6493 340.33 71.1493C339.6 69.4293 338.81 67.7393 337.95 66.0793C337.53 65.2793 337.14 64.2293 336.5 63.5793C335.68 62.7593 334.06 62.5393 332.98 62.2493C322.98 59.5193 312.61 59.7993 302.58 62.2093C300.97 62.5993 300.35 64.8393 301.59 65.9693C317.07 80.1893 324.48 101.769 320.57 122.479C319.41 128.599 317.38 134.499 314.47 140.009C313.12 142.569 317 144.849 318.36 142.279C329.19 121.799 328.53 96.6393 316.38 76.8793C313.18 71.6793 309.27 66.9193 304.78 62.7893C304.45 64.0393 304.12 65.2993 303.79 66.5493C313.97 64.0993 324.31 64.1493 334.33 67.3393C333.88 66.9993 333.43 66.6493 332.99 66.3093C343.52 85.1693 344.79 108.469 337.33 128.639C335.23 134.309 332.37 139.689 328.91 144.639C328.21 145.639 328.73 147.139 329.72 147.719C330.8 148.379 332.06 147.909 332.76 146.919Z"></path>
  <path fill="#000" d="M315.78 131.35C316.94 119.8 307.54 110.08 297.68 105.73C286.2 100.68 273.21 100.52 261.85 95.21C256.45 92.69 251.55 89.1 248.66 83.77C247.64 81.9 244.24 82.64 244.47 84.91C245.99 100.37 254.16 114.83 266.73 123.98C270.27 126.56 274.15 128.59 278.25 130.13C279.39 130.56 280.72 129.66 281.02 128.56C281.37 127.3 280.59 126.22 279.45 125.79C266.37 120.89 256.17 109.45 251.57 96.39C250.26 92.68 249.35 88.82 248.97 84.9C247.57 85.28 246.17 85.66 244.78 86.04C250.21 96.04 261.42 100.73 271.94 103.31C283.37 106.12 296.42 107.35 305.15 116.12C309.21 120.19 311.88 125.5 311.3 131.35C311.18 132.56 312.42 133.6 313.55 133.6C314.84 133.6 315.65 132.57 315.78 131.35Z"></path>
  <path fill="#000" d="M288.54 138.069C280.14 129.369 269.67 122.799 258.22 118.929 246.24 114.889 233.32 114.099 220.9 116.359 213.73 117.669 206.79 120.059 200.3 123.359 198.33 124.359 199.24 127.669 201.44 127.549 225.3 126.319 249.26 132.839 269.35 145.729 275.03 149.379 280.36 153.529 285.28 158.149 287.39 160.129 290.58 156.949 288.46 154.969 270.3 137.949 246.84 127.089 222.2 123.869 215.32 122.969 208.37 122.689 201.44 123.049 201.82 124.449 202.2 125.849 202.58 127.239 213.45 121.709 225.69 119.119 237.87 119.649 249.37 120.149 260.65 123.619 270.54 129.489 276 132.729 280.96 136.679 285.37 141.239 287.37 143.339 290.55 140.149 288.54 138.069zM332.87 149.97C347.88 149.53 357.95 136.89 365.94 125.7 370.03 119.97 374.13 114.13 379.52 109.53 384.57 105.22 390.83 102.57 397.46 102.09 405.05 101.54 412.61 103.54 418.79 108.01 419.37 106.64 419.95 105.27 420.52 103.9 409.85 101.14 398.17 105.56 390.31 112.87 385.82 117.05 382.92 122.42 380.52 127.99 378.07 133.67 375.97 139.63 372.28 144.66 368.71 149.54 362.64 153.71 356.33 152.42 353.5 151.84 352.29 156.18 355.13 156.76 361.26 158.02 367.3 155.72 371.93 151.69 376.56 147.66 379.41 142 381.79 136.45 384.25 130.72 386.37 124.66 390.18 119.64 393.37 115.44 397.82 112.23 402.6 110.09 407.78 107.78 413.76 106.8 419.31 108.24 421.9 108.91 423.04 105.58 421.04 104.13 409.63 95.8702 393.19 95.2602 381.23 102.72 368.65 110.57 362.77 124.77 352.71 135.11 347.4 140.56 340.7 145.24 332.85 145.48 329.98 145.56 329.97 150.06 332.87 149.97z"></path>
  <path fill="#000" d="M344.32 157.409C360.88 163.779 374.41 177.689 380.83 194.179 382.65 198.869 383.98 203.789 384.61 208.779 386.08 208.579 387.56 208.379 389.03 208.179 385.39 197.689 376.73 189.759 367.7 183.759 358.07 177.359 347.13 173.569 336.86 168.369 330.92 165.359 325.22 161.859 320.42 157.189 318.34 155.169 315.16 158.349 317.24 160.369 325.81 168.709 336.85 173.469 347.61 178.279 357.57 182.719 367.3 187.759 375.19 195.439 379.24 199.379 382.82 203.989 384.69 209.379 385.06 210.429 386.01 211.159 387.16 210.989 388.15 210.839 389.25 209.899 389.11 208.779 386.67 189.469 375.78 171.859 359.88 160.679 355.42 157.549 350.59 155.019 345.51 153.069 344.38 152.629 343.04 153.549 342.74 154.639 342.39 155.919 343.18 156.979 344.32 157.409zM311.65 155.43C300.04 171.49 282.06 182.531 262.69 186.351 257.2 187.431 251.61 187.871 246.02 187.721 246.22 189.191 246.42 190.671 246.62 192.141 262.67 187.131 276.71 175.891 285.42 161.531 287.87 157.491 289.86 153.171 291.36 148.691 292.28 145.941 287.94 144.761 287.02 147.491 282.06 162.291 271.01 174.841 257.52 182.521 253.68 184.711 249.64 186.48 245.43 187.79 243.01 188.54 243.46 192.141 246.03 192.211 267.02 192.771 287.86 184.861 303.56 170.991 308.05 167.021 312.04 162.551 315.55 157.691 316.26 156.701 315.72 155.181 314.74 154.611 313.59 153.961 312.37 154.45 311.65 155.43z"></path>
</svg>
